<svg width="169" height="111" viewBox="0 0 169 111" fill="none" xmlns="http://www.w3.org/2000/svg">
<path d="M12.7273 39H2.86932V9.90909H12.9261C15.8144 9.90909 18.2955 10.4915 20.3693 11.6562C22.4527 12.8116 24.053 14.4735 25.1705 16.642C26.2879 18.8106 26.8466 21.4053 26.8466 24.4261C26.8466 27.4564 26.2831 30.0606 25.1562 32.2386C24.0388 34.4167 22.4242 36.0881 20.3125 37.2528C18.2102 38.4176 15.6818 39 12.7273 39ZM8.1392 34.4403H12.4716C14.4981 34.4403 16.1884 34.071 17.5426 33.3324C18.8968 32.5843 19.9148 31.4716 20.5966 29.9943C21.2784 28.5076 21.6193 26.6515 21.6193 24.4261C21.6193 22.2008 21.2784 20.3542 20.5966 18.8864C19.9148 17.4091 18.9063 16.3059 17.571 15.5767C16.2453 14.8381 14.5975 14.4688 12.6278 14.4688H8.1392V34.4403ZM31.6264 39V17.1818H36.6122V20.8182H36.8395C37.2372 19.5587 37.919 18.5881 38.8849 17.9062C39.8603 17.215 40.973 16.8693 42.223 16.8693C42.5071 16.8693 42.8243 16.8835 43.1747 16.9119C43.5346 16.9309 43.8329 16.964 44.0696 17.0114V21.7415C43.8518 21.6657 43.5062 21.5994 43.0327 21.5426C42.5687 21.4763 42.1188 21.4432 41.6832 21.4432C40.7457 21.4432 39.9029 21.6468 39.1548 22.054C38.4162 22.4517 37.8338 23.0057 37.4077 23.7159C36.9815 24.4261 36.7685 25.2453 36.7685 26.1733V39H31.6264ZM56.1044 39.4261C53.9737 39.4261 52.1271 38.9574 50.5646 38.0199C49.0021 37.0824 47.79 35.7708 46.9283 34.0852C46.076 32.3996 45.6499 30.4299 45.6499 28.1761C45.6499 25.9223 46.076 23.9479 46.9283 22.2528C47.79 20.5578 49.0021 19.2415 50.5646 18.304C52.1271 17.3665 53.9737 16.8977 56.1044 16.8977C58.2351 16.8977 60.0817 17.3665 61.6442 18.304C63.2067 19.2415 64.4141 20.5578 65.2663 22.2528C66.1281 23.9479 66.5589 25.9223 66.5589 28.1761C66.5589 30.4299 66.1281 32.3996 65.2663 34.0852C64.4141 35.7708 63.2067 37.0824 61.6442 38.0199C60.0817 38.9574 58.2351 39.4261 56.1044 39.4261ZM56.1328 35.3068C57.2881 35.3068 58.254 34.9896 59.0305 34.3551C59.8071 33.7112 60.3847 32.8494 60.7635 31.7699C61.1518 30.6903 61.3459 29.4877 61.3459 28.1619C61.3459 26.8267 61.1518 25.6193 60.7635 24.5398C60.3847 23.4508 59.8071 22.5843 59.0305 21.9403C58.254 21.2964 57.2881 20.9744 56.1328 20.9744C54.9491 20.9744 53.9643 21.2964 53.1783 21.9403C52.4018 22.5843 51.8194 23.4508 51.4311 24.5398C51.0523 25.6193 50.8629 26.8267 50.8629 28.1619C50.8629 29.4877 51.0523 30.6903 51.4311 31.7699C51.8194 32.8494 52.4018 33.7112 53.1783 34.3551C53.9643 34.9896 54.9491 35.3068 56.1328 35.3068ZM70.9233 47.1818V17.1818H75.9801V20.7898H76.2784C76.5436 20.2595 76.9176 19.696 77.4006 19.0994C77.8835 18.4934 78.5369 17.9773 79.3608 17.5511C80.1847 17.1155 81.2358 16.8977 82.5142 16.8977C84.1998 16.8977 85.7197 17.3286 87.0739 18.1903C88.4375 19.0426 89.517 20.3068 90.3125 21.983C91.1174 23.6496 91.5199 25.6951 91.5199 28.1193C91.5199 30.5152 91.1269 32.5511 90.3409 34.2273C89.5549 35.9034 88.4848 37.1818 87.1307 38.0625C85.7765 38.9432 84.2424 39.3835 82.5284 39.3835C81.2784 39.3835 80.2415 39.1752 79.4176 38.7585C78.5938 38.3419 77.9309 37.84 77.429 37.2528C76.9366 36.6562 76.553 36.0928 76.2784 35.5625H76.0653V47.1818H70.9233ZM75.9659 28.0909C75.9659 29.5019 76.1648 30.7377 76.5625 31.7983C76.9697 32.8589 77.5521 33.6875 78.3097 34.2841C79.0767 34.8712 80.0047 35.1648 81.0938 35.1648C82.2301 35.1648 83.1818 34.8617 83.9489 34.2557C84.7159 33.6402 85.2936 32.8021 85.6818 31.7415C86.0795 30.6714 86.2784 29.4545 86.2784 28.0909C86.2784 26.7367 86.0843 25.5341 85.696 24.483C85.3078 23.4318 84.7301 22.608 83.9631 22.0114C83.196 21.4148 82.2396 21.1165 81.0938 21.1165C79.9953 21.1165 79.0625 21.4053 78.2955 21.983C77.5284 22.5606 76.946 23.3703 76.5483 24.4119C76.16 25.4536 75.9659 26.6799 75.9659 28.0909Z" fill="#FF4C5A"/>
<path d="M95.8693 39V9.90909H114.79V14.3267H101.139V22.2244H113.81V26.642H101.139V34.5824H114.903V39H95.8693ZM126.217 39.4403C124.835 39.4403 123.589 39.1941 122.482 38.7017C121.383 38.1998 120.512 37.4612 119.868 36.4858C119.233 35.5104 118.916 34.3078 118.916 32.8778C118.916 31.6468 119.143 30.6288 119.598 29.8239C120.053 29.0189 120.673 28.375 121.459 27.892C122.245 27.4091 123.13 27.0445 124.115 26.7983C125.109 26.5426 126.137 26.358 127.197 26.2443C128.476 26.1117 129.513 25.9934 130.308 25.8892C131.104 25.7756 131.681 25.6051 132.041 25.3778C132.411 25.1411 132.595 24.7765 132.595 24.2841V24.1989C132.595 23.1288 132.278 22.3002 131.643 21.7131C131.009 21.1259 130.095 20.8324 128.902 20.8324C127.643 20.8324 126.643 21.107 125.905 21.6562C125.176 22.2055 124.683 22.8542 124.428 23.6023L119.626 22.9205C120.005 21.5947 120.63 20.4867 121.501 19.5966C122.373 18.697 123.438 18.0246 124.697 17.5795C125.957 17.125 127.349 16.8977 128.874 16.8977C129.925 16.8977 130.971 17.0208 132.013 17.267C133.054 17.5133 134.006 17.9205 134.868 18.4886C135.73 19.0473 136.421 19.8097 136.942 20.7756C137.472 21.7415 137.737 22.9489 137.737 24.3977V39H132.794V36.0028H132.624C132.311 36.6089 131.871 37.1771 131.303 37.7074C130.744 38.2282 130.038 38.6496 129.186 38.9716C128.343 39.2841 127.354 39.4403 126.217 39.4403ZM127.553 35.6619C128.585 35.6619 129.48 35.4583 130.237 35.0511C130.995 34.6345 131.577 34.0852 131.984 33.4034C132.401 32.7216 132.609 31.9782 132.609 31.1733V28.6023C132.448 28.7348 132.174 28.858 131.786 28.9716C131.407 29.0852 130.981 29.1847 130.507 29.2699C130.034 29.3551 129.565 29.4309 129.101 29.4972C128.637 29.5634 128.234 29.6203 127.893 29.6676C127.126 29.7718 126.44 29.9422 125.834 30.179C125.228 30.4157 124.75 30.7472 124.399 31.1733C124.049 31.59 123.874 32.1297 123.874 32.7926C123.874 33.7396 124.219 34.4545 124.911 34.9375C125.602 35.4205 126.482 35.6619 127.553 35.6619ZM153.803 17.1818V21.1591H141.26V17.1818H153.803ZM144.357 11.9545H149.499V32.4375C149.499 33.1288 149.603 33.6591 149.811 34.0284C150.029 34.3883 150.313 34.6345 150.663 34.767C151.014 34.8996 151.402 34.9659 151.828 34.9659C152.15 34.9659 152.444 34.9422 152.709 34.8949C152.983 34.8475 153.192 34.8049 153.334 34.767L154.2 38.7869C153.926 38.8816 153.533 38.9858 153.021 39.0994C152.519 39.2131 151.904 39.2794 151.175 39.2983C149.887 39.3362 148.727 39.142 147.695 38.7159C146.662 38.2803 145.843 37.608 145.237 36.6989C144.641 35.7898 144.347 34.6534 144.357 33.2898V11.9545Z" fill="#FF4C5A"/>
<path d="M150.364 52.2083C150.364 48.4041 147.078 45.2916 143.062 45.2916H132.11V52.2083H143.062V61.3729L130.358 76.4166H117.507V59.125H102.905C94.8365 59.125 88.3018 65.3154 88.3018 72.9583V83.3333H95.6032C95.6032 89.0741 100.495 93.7083 106.555 93.7083C112.616 93.7083 117.507 89.0741 117.507 83.3333H133.863L150.364 63.7937V52.2083ZM106.555 86.7916C104.547 86.7916 102.905 85.2354 102.905 83.3333H110.206C110.206 85.2354 108.563 86.7916 106.555 86.7916Z" fill="#FF4C5A"/>
<path d="M99.2539 48.75H117.507V55.6667H99.2539V48.75ZM150.364 72.9583C144.304 72.9583 139.412 77.5925 139.412 83.3333C139.412 89.0742 144.304 93.7083 150.364 93.7083C156.424 93.7083 161.316 89.0742 161.316 83.3333C161.316 77.5925 156.424 72.9583 150.364 72.9583ZM150.364 86.7917C148.356 86.7917 146.713 85.2354 146.713 83.3333C146.713 81.4312 148.356 79.875 150.364 79.875C152.372 79.875 154.015 81.4312 154.015 83.3333C154.015 85.2354 152.372 86.7917 150.364 86.7917Z" fill="#FF4C5A"/>
</svg>
